<?xml version="1.0" encoding="UTF-8" standalone="no"?>
<svg width="31px" height="18px" viewBox="0 0 31 18" version="1.1" xmlns="http://www.w3.org/2000/svg" xmlns:xlink="http://www.w3.org/1999/xlink">
    <!-- Generator: Sketch 49.3 (51167) - http://www.bohemiancoding.com/sketch -->
    <title>arena-white</title>
    <desc>Created with Sketch.</desc>
    <defs></defs>
    <g id="Page-1" stroke="none" stroke-width="1" fill="none" fill-rule="evenodd">
        <g id="arena-white" fill="#FFFFFF" fill-rule="nonzero">
            <path d="M30.6025511,12.5688411 L26.3328972,9.29558029 C26.0715609,9.09579631 26.0715609,8.76775101 26.3328972,8.56736767 L30.6027559,5.29490602 C30.8649114,5.09472247 30.9744843,4.75648819 30.8464786,4.54371824 C30.7182682,4.33154765 30.360262,4.25602931 30.0518196,4.3758997 L24.9746038,6.34856675 C24.6659566,6.46963585 24.3751277,6.30461427 24.3288409,5.98296206 L23.5653128,0.695678936 C23.5182068,0.374226506 23.2703878,0.111111 23.0137621,0.111111 C22.7583653,0.111111 22.5107512,0.374226506 22.4648739,0.695479152 L21.7009363,5.98316185 C21.6542398,6.30481406 21.3638206,6.46943606 21.0547638,6.34876653 L16.0615197,4.40886405 C15.7518484,4.2885941 15.2474038,4.2885941 14.9385517,4.40886405 L9.94448839,6.34876653 C9.63563638,6.46943606 9.34480756,6.30481406 9.29852072,5.98316185 L8.53560709,0.695479152 C8.48850101,0.374226506 8.2410917,0.111111 7.98549004,0.111111 C7.72906913,0.111111 7.4810454,0.374226506 7.43496337,0.695479152 L6.67102569,5.98316185 C6.62473885,6.30481406 6.33411484,6.46943606 6.02526282,6.34876653 L0.948251813,4.37649905 C0.639604607,4.25602931 0.282212852,4.33194722 0.1540024,4.54391803 C0.0259967569,4.75688775 0.135159969,5.09532182 0.39649629,5.29510581 L4.66676454,8.56756746 C4.92830567,8.76795079 4.92830567,9.09599609 4.66676454,9.29597986 L0.39649629,12.5688411 C0.134340733,12.7690246 0.0257919479,13.1274371 0.153592782,13.3647805 C0.282008043,13.6025234 0.639399798,13.6980202 0.947637386,13.5773506 L5.97918079,11.6062818 C6.28844242,11.4858121 6.5759943,11.6498348 6.61920901,11.971487 L7.3450522,17.3049202 C7.38888134,17.6259731 7.67643321,17.8888888 7.98405637,17.8888888 C8.29126992,17.8888888 8.5790266,17.6261728 8.62306054,17.3049202 L9.35013259,11.971487 C9.39314249,11.6498348 9.68192322,11.4860119 9.98954638,11.6062818 L14.9385517,13.5437869 C15.2469941,13.664856 15.7516436,13.664856 16.0602908,13.5437869 L21.0084769,11.6062818 C21.3165097,11.4858121 21.6044712,11.6498348 21.6485051,11.971487 L22.3755772,17.3049202 C22.4189967,17.6259731 22.7067534,17.8888888 23.0135573,17.8888888 C23.3211805,17.8888888 23.6089372,17.6261728 23.6525615,17.3049202 L24.3796335,11.971487 C24.4238723,11.6498348 24.7114242,11.4860119 25.0194569,11.6062818 L30.0516148,13.5773506 C30.3588283,13.6980202 30.7172441,13.6023236 30.8454546,13.3649803 C30.9738698,13.1280364 30.8647066,12.769624 30.6027559,12.5694404 L30.6025511,12.5688411 Z M19.7394802,9.33713536 L15.9791864,12.161082 C15.7160068,12.3588681 15.2842694,12.3588681 15.021909,12.161082 L11.2603864,9.33713536 C10.9974116,9.13934922 10.9953635,8.81370132 11.2562902,8.61291842 L15.0247763,5.71744915 C15.2857031,5.51666624 15.7135491,5.51666624 15.9746806,5.71744915 L19.7431667,8.61291842 C20.0047079,8.81350154 20.0026598,9.13914943 19.7390706,9.33733515 L19.7394802,9.33713536 Z" id="Shape"></path>
        </g>
    </g>
</svg>